<?xml version="1.0" encoding="UTF-8" standalone="no"?>
<!-- Created with Inkscape (http://www.inkscape.org/) -->

<svg
   xmlns:dc="http://purl.org/dc/elements/1.1/"
   xmlns:cc="http://creativecommons.org/ns#"
   xmlns:rdf="http://www.w3.org/1999/02/22-rdf-syntax-ns#"
   xmlns:svg="http://www.w3.org/2000/svg"
   xmlns="http://www.w3.org/2000/svg"
   xmlns:sodipodi="http://sodipodi.sourceforge.net/DTD/sodipodi-0.dtd"
   xmlns:inkscape="http://www.inkscape.org/namespaces/inkscape"
   version="1.1"
   id="svg2"
   xml:space="preserve"
   width="879.24078"
   height="872.57837"
   viewBox="0 0 879.24078 872.57836"
   sodipodi:docname="ASC_logo.svg"
   inkscape:export-filename="C:\Users\sakul_bp6myy0\Downloads\TSC U\ASC_logo.png"
   inkscape:export-xdpi="95.599998"
   inkscape:export-ydpi="95.599998"
   inkscape:version="0.92.4 (5da689c313, 2019-01-14)"><metadata
     id="metadata8"><rdf:RDF><cc:Work
         rdf:about=""><dc:format>image/svg+xml</dc:format><dc:type
           rdf:resource="http://purl.org/dc/dcmitype/StillImage" /><dc:title></dc:title></cc:Work></rdf:RDF></metadata><defs
     id="defs6"><clipPath
       clipPathUnits="userSpaceOnUse"
       id="clipPath18"><path
         d="M 0,1417.323 H 1417.323 V 0 H 0 Z"
         id="path16"
         inkscape:connector-curvature="0" /></clipPath><clipPath
       clipPathUnits="userSpaceOnUse"
       id="clipPath214"><path
         d="M 0,1417.323 H 1417.323 V 0 H 0 Z"
         id="path212"
         inkscape:connector-curvature="0" /></clipPath></defs><sodipodi:namedview
     pagecolor="#ffffff"
     bordercolor="#666666"
     borderopacity="1"
     objecttolerance="10"
     gridtolerance="10"
     guidetolerance="10"
     inkscape:pageopacity="0"
     inkscape:pageshadow="2"
     inkscape:window-width="1920"
     inkscape:window-height="1001"
     id="namedview4"
     showgrid="false"
     inkscape:zoom="0.49953433"
     inkscape:cx="462.50575"
     inkscape:cy="906.67455"
     inkscape:window-x="-9"
     inkscape:window-y="-9"
     inkscape:window-maximized="1"
     inkscape:current-layer="g10"
     fit-margin-top="0"
     fit-margin-left="0"
     fit-margin-right="0"
     fit-margin-bottom="0" /><g
     id="g10"
     inkscape:groupmode="layer"
     inkscape:label="Thailand Sudoku Championship create outline"
     transform="matrix(1.3333333,0,0,-1.3333333,-167.17146,975.47424)"><g
       id="g208"
       inkscape:export-xdpi="95.599998"
       inkscape:export-ydpi="95.599998"><g
         id="g210"
         clip-path="url(#clipPath214)"><g
           id="g216"
           transform="translate(417.5103,439.5118)"><path
             d="m 0,0 c 20.699,20.699 54.415,20.699 75.113,0 20.699,-20.699 20.699,-54.415 0,-75.113 C 54.414,-95.812 20.699,-95.812 0,-75.113 -20.699,-54.415 -20.699,-20.699 0,0"
             style="fill:#f6851f;fill-opacity:1;fill-rule:nonzero;stroke:none"
             id="path218"
             inkscape:connector-curvature="0" /></g><g
           id="g220"
           transform="translate(509.5421,456.4305)"><path
             d="m 0,0 c -30.027,30.027 -78.924,30.027 -108.95,0 -30.028,-30.027 -30.028,-78.924 -10e-4,-108.951 30.027,-30.027 78.924,-30.027 108.951,0 C 30.027,-78.924 30.027,-30.027 0,0 m -122.699,13.748 c 37.618,37.618 98.83,37.618 136.447,0 37.618,-37.617 37.618,-98.83 0.001,-136.447 -37.618,-37.618 -98.83,-37.618 -136.448,0 -37.617,37.618 -37.617,98.83 0,136.447"
             style="fill:#f6851f;fill-opacity:1;fill-rule:nonzero;stroke:none"
             id="path222"
             inkscape:connector-curvature="0" /></g><g
           id="g224"
           transform="translate(418.3376,716.4047)"><path
             d="m 0,0 c 20.268,20.268 53.129,20.268 73.398,0 l 69.874,-69.874 c 20.668,-20.668 30.758,-41.977 29.844,-63.316 -0.918,-22.486 -13.736,-40.52 -22.028,-49.912 -0.882,-0.999 -1.816,-1.955 -2.775,-2.88 -1.678,-1.617 -3.004,-2.962 -3.913,-3.97 -0.183,-0.183 -0.336,-0.274 -0.336,-0.274 l -2.627,-2.628 c -15.106,-15.106 -37.834,-19.203 -57.497,-10.852 -30.085,12.778 -64.349,12.789 -94.425,0.014 -19.665,-8.353 -42.396,-4.259 -57.504,10.849 l -0.508,0.508 c -0.61,0.609 -1.199,1.239 -1.775,1.88 -1.089,1.211 -2.944,3.159 -5.474,5.552 -1.448,1.369 -2.811,2.825 -4.078,4.363 -8.188,9.944 -19.002,26.782 -19.833,47.35 -0.915,21.339 9.115,42.647 29.813,63.346 z"
             style="fill:#f6851f;fill-opacity:1;fill-rule:nonzero;stroke:none"
             id="path226"
             inkscape:connector-curvature="0" /></g><g
           id="g228"
           transform="translate(331.5751,295.4126)"><path
             d="m 0,0 -0.732,-0.793 c 0,0 -0.091,-0.152 -0.243,-0.304 -1.077,-0.979 -2.566,-2.41 -4.326,-4.245 -1.16,-1.21 -2.368,-2.371 -3.638,-3.466 -9.563,-8.247 -26.92,-20.082 -48.646,-21.036 -21.4,-0.976 -42.8,9.084 -63.529,29.813 L -191,69.856 c -20.262,20.261 -20.262,53.112 0,73.373 l 69.886,69.886 c 20.668,20.669 41.977,30.698 63.346,29.814 20.505,-0.829 37.302,-11.578 47.257,-19.757 1.587,-1.304 3.086,-2.714 4.492,-4.212 2.362,-2.515 4.302,-4.345 5.497,-5.435 0.589,-0.537 1.167,-1.085 1.73,-1.648 L 1.86,211.225 C 16.966,196.119 21.057,173.39 12.701,153.73 -0.077,123.665 -0.077,89.42 12.701,59.355 21.057,39.695 16.966,16.966 1.861,1.861 Z"
             style="fill:#f6851f;fill-opacity:1;fill-rule:nonzero;stroke:none"
             id="path230"
             inkscape:connector-curvature="0" /></g><g
           id="g232"
           transform="translate(769.6082,365.1347)"><path
             d="m 0,0 c 20.268,20.268 20.268,53.129 0,73.397 l -69.875,69.875 c -20.668,20.668 -41.977,30.758 -63.315,29.844 -22.486,-0.918 -40.52,-13.736 -49.912,-22.028 -0.999,-0.882 -1.955,-1.816 -2.88,-2.776 -1.618,-1.678 -2.962,-3.003 -3.97,-3.912 -0.183,-0.184 -0.274,-0.336 -0.274,-0.336 l -2.628,-2.628 c -15.106,-15.105 -19.203,-37.833 -10.852,-57.496 12.778,-30.085 12.789,-64.35 0.014,-94.425 -8.353,-19.665 -4.259,-42.396 10.848,-57.504 l 0.509,-0.508 c 0.609,-0.61 1.239,-1.199 1.88,-1.775 1.211,-1.089 3.159,-2.945 5.551,-5.474 1.37,-1.448 2.825,-2.811 4.364,-4.078 9.944,-8.189 26.782,-19.002 47.35,-19.834 21.338,-0.914 42.647,9.115 63.346,29.814 z"
             style="fill:#f6851f;fill-opacity:1;fill-rule:nonzero;stroke:none"
             id="path234"
             inkscape:connector-curvature="0" /></g><g
           id="g236"
           transform="translate(348.6158,278.3719)"><path
             d="m 0,0 -0.793,-0.732 c 0,0 -0.152,-0.091 -0.304,-0.243 -1.22,-1.342 -3.14,-3.323 -5.67,-5.67 -8.17,-8.902 -22.04,-27.345 -23.077,-50.94 -0.976,-21.4 9.084,-42.8 29.813,-63.529 l 61.358,-61.357 c 24.972,-24.972 65.46,-24.972 90.432,0 l 61.356,61.357 c 20.669,20.668 30.698,41.977 29.814,63.346 -0.914,22.62 -13.9,40.727 -22.192,50.116 -4.238,3.811 -6.951,6.829 -7.957,7.957 L 182.784,30.302 C 138.612,-5.945 74.473,-5.944 30.302,30.302 Z"
             style="fill:#f6851f;fill-opacity:1;fill-rule:nonzero;stroke:none"
             id="path238"
             inkscape:connector-curvature="0" /></g><g
           id="g240"
           transform="translate(358.2421,497.5014)"><path
             d="m 0,0 h -108.484 c -27.649,0 -50.063,22.414 -50.063,50.063 V 158.547 H -50.063 C -22.414,158.547 0,136.133 0,108.484 Z"
             style="fill:#f89b49;fill-opacity:1;fill-rule:nonzero;stroke:none"
             id="path242"
             inkscape:connector-curvature="0" /></g><g
           id="g244"
           transform="translate(358.2421,497.5014)"><path
             d="m 0,0 h -108.484 c -27.649,0 -50.063,22.414 -50.063,50.063 V 158.547 H -50.063 C -22.414,158.547 0,136.133 0,108.484 Z"
             style="fill:none;stroke:#231f20;stroke-width:4.59299994;stroke-linecap:butt;stroke-linejoin:miter;stroke-miterlimit:10;stroke-dasharray:none;stroke-opacity:1"
             id="path246"
             inkscape:connector-curvature="0" /></g><g
           id="g248"
           transform="translate(551.4201,497.5014)"><path
             d="m 0,0 h 108.484 c 27.649,0 50.063,22.414 50.063,50.063 V 158.547 H 50.063 C 22.414,158.547 0,136.133 0,108.484 Z"
             style="fill:#f89b49;fill-opacity:1;fill-rule:nonzero;stroke:none"
             id="path250"
             inkscape:connector-curvature="0" /></g><g
           id="g252"
           transform="translate(551.4201,497.5014)"><path
             d="m 0,0 h 108.484 c 27.649,0 50.063,22.414 50.063,50.063 V 158.547 H 50.063 C 22.414,158.547 0,136.133 0,108.484 Z"
             style="fill:none;stroke:#231f20;stroke-width:4.59299994;stroke-linecap:butt;stroke-linejoin:miter;stroke-miterlimit:10;stroke-dasharray:none;stroke-opacity:1"
             id="path254"
             inkscape:connector-curvature="0" /></g><g
           id="g256"
           transform="translate(551.808,305.5182)"><path
             d="m 0,0 h 108.484 c 27.649,0 50.063,-22.414 50.063,-50.063 V -158.547 H 50.063 C 22.414,-158.547 0,-136.133 0,-108.484 Z"
             style="fill:#f89b49;fill-opacity:1;fill-rule:nonzero;stroke:none"
             id="path258"
             inkscape:connector-curvature="0" /></g><g
           id="g260"
           transform="translate(551.808,305.5182)"><path
             d="m 0,0 h 108.484 c 27.649,0 50.063,-22.414 50.063,-50.063 V -158.547 H 50.063 C 22.414,-158.547 0,-136.133 0,-108.484 Z"
             style="fill:none;stroke:#231f20;stroke-width:4.59299994;stroke-linecap:butt;stroke-linejoin:miter;stroke-miterlimit:10;stroke-dasharray:none;stroke-opacity:1"
             id="path262"
             inkscape:connector-curvature="0" /></g><g
           id="g264"
           transform="translate(358.63,305.5182)"><path
             d="m 0,0 h -108.484 c -27.649,0 -50.063,-22.414 -50.063,-50.063 v -108.484 h 108.484 c 27.649,0 50.063,22.414 50.063,50.063 z"
             style="fill:#f89b49;fill-opacity:1;fill-rule:nonzero;stroke:none"
             id="path266"
             inkscape:connector-curvature="0" /></g><g
           id="g268"
           transform="translate(358.63,305.5182)"><path
             d="m 0,0 h -108.484 c -27.649,0 -50.063,-22.414 -50.063,-50.063 v -108.484 h 108.484 c 27.649,0 50.063,22.414 50.063,50.063 z"
             style="fill:none;stroke:#231f20;stroke-width:4.59299994;stroke-linecap:butt;stroke-linejoin:miter;stroke-miterlimit:10;stroke-dasharray:none;stroke-opacity:1"
             id="path270"
             inkscape:connector-curvature="0" /></g><g
           id="g272"
           transform="translate(503.016,497.5014)"><path
             d="m 0,0 h -96.613 c -17.103,0 -30.967,13.864 -30.967,30.967 v 127.58 H 30.967 V 30.967 C 30.967,13.864 17.103,0 0,0"
             style="fill:#ef4040;fill-opacity:1;fill-rule:nonzero;stroke:none"
             id="path274"
             inkscape:connector-curvature="0" /></g><g
           id="g276"
           transform="translate(503.016,497.5014)"><path
             d="m 0,0 h -96.613 c -17.103,0 -30.967,13.864 -30.967,30.967 v 127.58 H 30.967 V 30.967 C 30.967,13.864 17.103,0 0,0 Z"
             style="fill:none;stroke:#231f20;stroke-width:4.59299994;stroke-linecap:butt;stroke-linejoin:miter;stroke-miterlimit:10;stroke-dasharray:none;stroke-opacity:1"
             id="path278"
             inkscape:connector-curvature="0" /></g><g
           id="g280"
           transform="translate(327.6629,322.8588)"><path
             d="M 0,0 H -127.58 V 158.547 H 0 c 17.103,0 30.967,-13.864 30.967,-30.967 V 30.967 C 30.967,13.864 17.103,0 0,0"
             style="fill:#0e69b3;fill-opacity:1;fill-rule:nonzero;stroke:none"
             id="path282"
             inkscape:connector-curvature="0" /></g><g
           id="g284"
           transform="translate(327.6629,322.8588)"><path
             d="M 0,0 H -127.58 V 158.547 H 0 c 17.103,0 30.967,-13.864 30.967,-30.967 V 30.967 C 30.967,13.864 17.103,0 0,0 Z"
             style="fill:none;stroke:#231f20;stroke-width:4.59299994;stroke-linecap:butt;stroke-linejoin:miter;stroke-miterlimit:10;stroke-dasharray:none;stroke-opacity:1"
             id="path286"
             inkscape:connector-curvature="0" /></g><g
           id="g288"
           transform="translate(710.3552,322.8588)"><path
             d="m 0,0 h -127.58 c -17.103,0 -30.967,13.864 -30.967,30.967 v 96.613 c 0,17.103 13.864,30.967 30.967,30.967 H 0 Z"
             style="fill:#0e69b3;fill-opacity:1;fill-rule:nonzero;stroke:none"
             id="path290"
             inkscape:connector-curvature="0" /></g><g
           id="g292"
           transform="translate(710.3552,322.8588)"><path
             d="m 0,0 h -127.58 c -17.103,0 -30.967,13.864 -30.967,30.967 v 96.613 c 0,17.103 13.864,30.967 30.967,30.967 H 0 Z"
             style="fill:none;stroke:#231f20;stroke-width:4.59299994;stroke-linecap:butt;stroke-linejoin:miter;stroke-miterlimit:10;stroke-dasharray:none;stroke-opacity:1"
             id="path294"
             inkscape:connector-curvature="0" /></g><g
           id="g296"
           transform="translate(534.371,146.971)"><path
             d="m 0,0 h -158.547 v 127.58 c 0,17.103 13.864,30.967 30.967,30.967 h 96.613 C -13.864,158.547 0,144.683 0,127.58 Z"
             style="fill:#ef4040;fill-opacity:1;fill-rule:nonzero;stroke:none"
             id="path298"
             inkscape:connector-curvature="0" /></g><g
           id="g300"
           transform="translate(534.371,146.971)"><path
             d="m 0,0 h -158.547 v 127.58 c 0,17.103 13.864,30.967 30.967,30.967 h 96.613 C -13.864,158.547 0,144.683 0,127.58 Z"
             style="fill:none;stroke:#231f20;stroke-width:4.59299994;stroke-linecap:butt;stroke-linejoin:miter;stroke-miterlimit:10;stroke-dasharray:none;stroke-opacity:1"
             id="path302"
             inkscape:connector-curvature="0" /></g><g
           id="g304"
           transform="translate(293.8309,392.4951)"><path
             d="m 0,0 -10.068,28.926 c -1.598,5.274 -3.357,11.506 -5.114,17.099 -1.599,-5.593 -3.356,-11.825 -5.114,-17.099 L -30.524,0 Z m 6.872,-19.816 h -44.268 l -8.789,-24.771 H -74.152 L -31.483,65.682 H 2.397 L 44.427,-44.587 H 15.502 Z"
             style="fill:#ffffff;fill-opacity:1;fill-rule:nonzero;stroke:none"
             id="path306"
             inkscape:connector-curvature="0" /></g><g
           id="g308"
           transform="translate(504.6937,555.2007)"><path
             d="m 0,0 c 0,-20.456 -15.022,-35.158 -48.582,-35.158 -34.359,0 -50.5,13.743 -50.5,36.277 h 27.168 c 0,-8.79 8.15,-15.022 22.213,-14.703 15.662,0.16 22.054,5.274 22.054,11.506 0,8.47 -7.032,9.749 -13.744,10.548 l -17.739,2.397 c -26.049,3.516 -37.075,16.94 -37.075,33.88 0,18.537 13.903,33.56 45.545,33.56 31.962,0 47.624,-13.744 47.624,-35.638 h -26.529 c 0,8.95 -8.31,14.223 -20.455,14.223 -14.543,-0.16 -18.698,-5.753 -18.698,-11.186 0,-6.073 6.232,-8.95 15.501,-10.068 l 17.899,-2.717 C -14.542,30.044 0,22.533 0,0"
             style="fill:#ffffff;fill-opacity:1;fill-rule:nonzero;stroke:none"
             id="path310"
             inkscape:connector-curvature="0" /></g><g
           id="g312"
           transform="translate(630.95,346.3103)"><path
             d="m 0,0 c -30.045,0 -54.975,19.816 -54.975,56.732 0,36.118 26.369,56.733 55.774,56.733 27.167,0 49.86,-15.182 51.938,-42.829 H 25.25 C 23.652,84.06 12.944,90.612 0.479,90.612 c -14.862,0 -27.487,-11.346 -27.487,-33.72 0,-22.533 12.625,-34.039 27.327,-34.039 13.584,0 23.173,7.351 24.931,19.976 H 53.057 C 50.02,15.501 26.688,0 0,0"
             style="fill:#ffffff;fill-opacity:1;fill-rule:nonzero;stroke:none"
             id="path314"
             inkscape:connector-curvature="0" /></g><g
           id="g316"
           transform="translate(452.7683,229.8463)"><path
             d="M 0,0 C 4.794,9.748 10.867,20.935 14.862,28.286 8.15,28.127 -1.599,27.647 -14.224,27.647 H -42.03 V 50.02 H 43.947 L 43.787,28.286 0.639,-60.248 h -29.884 z"
             style="fill:#ffffff;fill-opacity:1;fill-rule:nonzero;stroke:none"
             id="path318"
             inkscape:connector-curvature="0" /></g></g></g></g></svg>